<svg width="200" height="59" viewBox="0 0 200 59" fill="none" xmlns="http://www.w3.org/2000/svg">
<rect width="200" height="59" rx="12" fill="black"/>
<path d="M32.5104 28.8921L37.1923 24.2102L22.0699 15.7109C21.0677 15.1694 20.1288 15.0934 19.3054 15.6855L32.5104 28.8921ZM37.9903 34.3736L42.8575 31.636C43.8075 31.104 44.3284 30.3504 44.3284 29.5144C44.3284 28.6799 43.8075 27.9247 42.8591 27.3927L38.4527 24.9179L33.4921 29.8769L37.9903 34.3736ZM18.4916 16.8366C18.3903 17.1485 18.3333 17.4969 18.3333 17.8784V41.1614C18.3333 41.7646 18.4663 42.2839 18.7069 42.6972L31.5272 29.8754L18.4916 16.8366ZM32.5104 30.857L19.7614 43.6076C20.0053 43.701 20.2681 43.7501 20.5452 43.7501C21.0392 43.7501 21.5538 43.6044 22.0778 43.3131L36.7316 35.0845L32.5104 30.857Z" fill="white"/>
<path d="M75.47 12.07C75.1993 11.5007 74.8073 11.062 74.294 10.754C73.7807 10.4367 73.1833 10.278 72.502 10.278C71.8207 10.278 71.2047 10.4367 70.654 10.754C70.1127 11.062 69.6833 11.51 69.366 12.098C69.058 12.6767 68.904 13.3487 68.904 14.114C68.904 14.8793 69.058 15.5513 69.366 16.13C69.6833 16.7087 70.1127 17.1567 70.654 17.474C71.2047 17.782 71.8207 17.936 72.502 17.936C73.454 17.936 74.238 17.6513 74.854 17.082C75.47 16.5127 75.8293 15.7427 75.932 14.772H72.04V13.736H77.29V14.716C77.2153 15.5187 76.9633 16.256 76.534 16.928C76.1047 17.5907 75.54 18.118 74.84 18.51C74.14 18.8927 73.3607 19.084 72.502 19.084C71.5967 19.084 70.7707 18.874 70.024 18.454C69.2773 18.0247 68.6847 17.432 68.246 16.676C67.8167 15.92 67.602 15.066 67.602 14.114C67.602 13.162 67.8167 12.308 68.246 11.552C68.6847 10.7867 69.2773 10.194 70.024 9.774C70.7707 9.34467 71.5967 9.13 72.502 9.13C73.538 9.13 74.4527 9.38667 75.246 9.9C76.0487 10.4133 76.632 11.1367 76.996 12.07H75.47ZM80.2485 10.278V13.54H83.8045V14.59H80.2485V17.95H84.2245V19H78.9745V9.228H84.2245V10.278H80.2485ZM92.1582 9.242V10.278H89.4982V19H88.2242V10.278H85.5502V9.242H92.1582ZM101.883 19.098C100.978 19.098 100.152 18.888 99.4049 18.468C98.6582 18.0387 98.0655 17.446 97.6269 16.69C97.1975 15.9247 96.9829 15.066 96.9829 14.114C96.9829 13.162 97.1975 12.308 97.6269 11.552C98.0655 10.7867 98.6582 10.194 99.4049 9.774C100.152 9.34467 100.978 9.13 101.883 9.13C102.798 9.13 103.628 9.34467 104.375 9.774C105.122 10.194 105.71 10.782 106.139 11.538C106.568 12.294 106.783 13.1527 106.783 14.114C106.783 15.0753 106.568 15.934 106.139 16.69C105.71 17.446 105.122 18.0387 104.375 18.468C103.628 18.888 102.798 19.098 101.883 19.098ZM101.883 17.992C102.564 17.992 103.176 17.8333 103.717 17.516C104.268 17.1987 104.697 16.746 105.005 16.158C105.322 15.57 105.481 14.8887 105.481 14.114C105.481 13.33 105.322 12.6487 105.005 12.07C104.697 11.482 104.272 11.0293 103.731 10.712C103.19 10.3947 102.574 10.236 101.883 10.236C101.192 10.236 100.576 10.3947 100.035 10.712C99.4935 11.0293 99.0642 11.482 98.7469 12.07C98.4389 12.6487 98.2849 13.33 98.2849 14.114C98.2849 14.8887 98.4389 15.57 98.7469 16.158C99.0642 16.746 99.4935 17.1987 100.035 17.516C100.586 17.8333 101.202 17.992 101.883 17.992ZM116.137 19H114.863L109.739 11.23V19H108.465V9.228H109.739L114.863 16.984V9.228H116.137V19Z" fill="#E7E7E7"/>
<path d="M78.1 37.24C77.78 36.6533 77.34 36.2067 76.78 35.9C76.22 35.5933 75.5667 35.44 74.82 35.44C73.9933 35.44 73.26 35.6267 72.62 36C71.98 36.3733 71.48 36.9067 71.12 37.6C70.76 38.2933 70.58 39.0933 70.58 40C70.58 40.9333 70.76 41.7467 71.12 42.44C71.4933 43.1333 72.0067 43.6667 72.66 44.04C73.3133 44.4133 74.0733 44.6 74.94 44.6C76.0067 44.6 76.88 44.32 77.56 43.76C78.24 43.1867 78.6867 42.3933 78.9 41.38H74.1V39.24H81.66V41.68C81.4733 42.6533 81.0733 43.5533 80.46 44.38C79.8467 45.2067 79.0533 45.8733 78.08 46.38C77.12 46.8733 76.04 47.12 74.84 47.12C73.4933 47.12 72.2733 46.82 71.18 46.22C70.1 45.6067 69.2467 44.76 68.62 43.68C68.0067 42.6 67.7 41.3733 67.7 40C67.7 38.6267 68.0067 37.4 68.62 36.32C69.2467 35.2267 70.1 34.38 71.18 33.78C72.2733 33.1667 73.4867 32.86 74.82 32.86C76.3933 32.86 77.76 33.2467 78.92 34.02C80.08 34.78 80.88 35.8533 81.32 37.24H78.1ZM88.6516 47.18C87.5849 47.18 86.6249 46.9467 85.7716 46.48C84.9182 46 84.2449 45.3267 83.7516 44.46C83.2716 43.5933 83.0316 42.5933 83.0316 41.46C83.0316 40.3267 83.2782 39.3267 83.7716 38.46C84.2782 37.5933 84.9649 36.9267 85.8316 36.46C86.6982 35.98 87.6649 35.74 88.7316 35.74C89.7982 35.74 90.7649 35.98 91.6316 36.46C92.4982 36.9267 93.1782 37.5933 93.6716 38.46C94.1782 39.3267 94.4316 40.3267 94.4316 41.46C94.4316 42.5933 94.1716 43.5933 93.6516 44.46C93.1449 45.3267 92.4516 46 91.5716 46.48C90.7049 46.9467 89.7316 47.18 88.6516 47.18ZM88.6516 44.74C89.1582 44.74 89.6316 44.62 90.0716 44.38C90.5249 44.1267 90.8849 43.7533 91.1516 43.26C91.4182 42.7667 91.5516 42.1667 91.5516 41.46C91.5516 40.4067 91.2716 39.6 90.7116 39.04C90.1649 38.4667 89.4916 38.18 88.6916 38.18C87.8916 38.18 87.2182 38.4667 86.6716 39.04C86.1382 39.6 85.8716 40.4067 85.8716 41.46C85.8716 42.5133 86.1316 43.3267 86.6516 43.9C87.1849 44.46 87.8516 44.74 88.6516 44.74ZM101.405 47.18C100.339 47.18 99.3788 46.9467 98.5255 46.48C97.6721 46 96.9988 45.3267 96.5055 44.46C96.0255 43.5933 95.7855 42.5933 95.7855 41.46C95.7855 40.3267 96.0321 39.3267 96.5255 38.46C97.0321 37.5933 97.7188 36.9267 98.5855 36.46C99.4521 35.98 100.419 35.74 101.485 35.74C102.552 35.74 103.519 35.98 104.385 36.46C105.252 36.9267 105.932 37.5933 106.425 38.46C106.932 39.3267 107.185 40.3267 107.185 41.46C107.185 42.5933 106.925 43.5933 106.405 44.46C105.899 45.3267 105.205 46 104.325 46.48C103.459 46.9467 102.485 47.18 101.405 47.18ZM101.405 44.74C101.912 44.74 102.385 44.62 102.825 44.38C103.279 44.1267 103.639 43.7533 103.905 43.26C104.172 42.7667 104.305 42.1667 104.305 41.46C104.305 40.4067 104.025 39.6 103.465 39.04C102.919 38.4667 102.245 38.18 101.445 38.18C100.645 38.18 99.9721 38.4667 99.4255 39.04C98.8921 39.6 98.6255 40.4067 98.6255 41.46C98.6255 42.5133 98.8855 43.3267 99.4055 43.9C99.9388 44.46 100.605 44.74 101.405 44.74ZM113.579 35.74C114.406 35.74 115.133 35.9067 115.759 36.24C116.386 36.56 116.879 36.98 117.239 37.5V35.92H120.059V47.08C120.059 48.1067 119.853 49.02 119.439 49.82C119.026 50.6333 118.406 51.2733 117.579 51.74C116.753 52.22 115.753 52.46 114.579 52.46C113.006 52.46 111.713 52.0933 110.699 51.36C109.699 50.6267 109.133 49.6267 108.999 48.36H111.779C111.926 48.8667 112.239 49.2667 112.719 49.56C113.213 49.8667 113.806 50.02 114.499 50.02C115.313 50.02 115.973 49.7733 116.479 49.28C116.986 48.8 117.239 48.0667 117.239 47.08V45.36C116.879 45.88 116.379 46.3133 115.739 46.66C115.113 47.0067 114.393 47.18 113.579 47.18C112.646 47.18 111.793 46.94 111.019 46.46C110.246 45.98 109.633 45.3067 109.179 44.44C108.739 43.56 108.519 42.5533 108.519 41.42C108.519 40.3 108.739 39.3067 109.179 38.44C109.633 37.5733 110.239 36.9067 110.999 36.44C111.773 35.9733 112.633 35.74 113.579 35.74ZM117.239 41.46C117.239 40.78 117.106 40.2 116.839 39.72C116.573 39.2267 116.213 38.8533 115.759 38.6C115.306 38.3333 114.819 38.2 114.299 38.2C113.779 38.2 113.299 38.3267 112.859 38.58C112.419 38.8333 112.059 39.2067 111.779 39.7C111.513 40.18 111.379 40.7533 111.379 41.42C111.379 42.0867 111.513 42.6733 111.779 43.18C112.059 43.6733 112.419 44.0533 112.859 44.32C113.313 44.5867 113.793 44.72 114.299 44.72C114.819 44.72 115.306 44.5933 115.759 44.34C116.213 44.0733 116.573 43.7 116.839 43.22C117.106 42.7267 117.239 42.14 117.239 41.46ZM125.594 32.2V47H122.794V32.2H125.594ZM138.66 41.22C138.66 41.62 138.634 41.98 138.58 42.3H130.48C130.547 43.1 130.827 43.7267 131.32 44.18C131.814 44.6333 132.42 44.86 133.14 44.86C134.18 44.86 134.92 44.4133 135.36 43.52H138.38C138.06 44.5867 137.447 45.4667 136.54 46.16C135.634 46.84 134.52 47.18 133.2 47.18C132.134 47.18 131.174 46.9467 130.32 46.48C129.48 46 128.82 45.3267 128.34 44.46C127.874 43.5933 127.64 42.5933 127.64 41.46C127.64 40.3133 127.874 39.3067 128.34 38.44C128.807 37.5733 129.46 36.9067 130.3 36.44C131.14 35.9733 132.107 35.74 133.2 35.74C134.254 35.74 135.194 35.9667 136.02 36.42C136.86 36.8733 137.507 37.52 137.96 38.36C138.427 39.1867 138.66 40.14 138.66 41.22ZM135.76 40.42C135.747 39.7 135.487 39.1267 134.98 38.7C134.474 38.26 133.854 38.04 133.12 38.04C132.427 38.04 131.84 38.2533 131.36 38.68C130.894 39.0933 130.607 39.6733 130.5 40.42H135.76ZM155.65 37.36C155.65 38.1067 155.47 38.8067 155.11 39.46C154.763 40.1133 154.21 40.64 153.45 41.04C152.703 41.44 151.757 41.64 150.61 41.64H148.27V47H145.47V33.04H150.61C151.69 33.04 152.61 33.2267 153.37 33.6C154.13 33.9733 154.697 34.4867 155.07 35.14C155.457 35.7933 155.65 36.5333 155.65 37.36ZM150.49 39.38C151.263 39.38 151.837 39.2067 152.21 38.86C152.583 38.5 152.77 38 152.77 37.36C152.77 36 152.01 35.32 150.49 35.32H148.27V39.38H150.49ZM160.438 32.2V47H157.638V32.2H160.438ZM162.484 41.42C162.484 40.3 162.704 39.3067 163.144 38.44C163.598 37.5733 164.204 36.9067 164.964 36.44C165.738 35.9733 166.598 35.74 167.544 35.74C168.371 35.74 169.091 35.9067 169.704 36.24C170.331 36.5733 170.831 36.9933 171.204 37.5V35.92H174.024V47H171.204V45.38C170.844 45.9 170.344 46.3333 169.704 46.68C169.078 47.0133 168.351 47.18 167.524 47.18C166.591 47.18 165.738 46.94 164.964 46.46C164.204 45.98 163.598 45.3067 163.144 44.44C162.704 43.56 162.484 42.5533 162.484 41.42ZM171.204 41.46C171.204 40.78 171.071 40.2 170.804 39.72C170.538 39.2267 170.178 38.8533 169.724 38.6C169.271 38.3333 168.784 38.2 168.264 38.2C167.744 38.2 167.264 38.3267 166.824 38.58C166.384 38.8333 166.024 39.2067 165.744 39.7C165.478 40.18 165.344 40.7533 165.344 41.42C165.344 42.0867 165.478 42.6733 165.744 43.18C166.024 43.6733 166.384 44.0533 166.824 44.32C167.278 44.5867 167.758 44.72 168.264 44.72C168.784 44.72 169.271 44.5933 169.724 44.34C170.178 44.0733 170.538 43.7 170.804 43.22C171.071 42.7267 171.204 42.14 171.204 41.46ZM187.359 35.92L180.499 52.24H177.519L179.919 46.72L175.479 35.92H178.619L181.479 43.66L184.379 35.92H187.359Z" fill="#E7E7E7"/>
</svg>
