<svg width="198" height="59" viewBox="0 0 198 59" fill="none" xmlns="http://www.w3.org/2000/svg">
<rect width="198" height="59" rx="12" fill="black"/>
<path d="M38.9958 42.61C37.4441 44.1142 35.7499 43.8767 34.1191 43.1642C32.3933 42.4358 30.8099 42.4042 28.9891 43.1642C26.7091 44.1458 25.5058 43.8608 24.1441 42.61C16.4174 34.6458 17.5574 22.5175 26.3291 22.0742C28.4666 22.185 29.9549 23.2458 31.2058 23.3408C33.0741 22.9608 34.8633 21.8683 36.8583 22.0108C39.2491 22.2008 41.0541 23.1508 42.2416 24.8608C37.3016 27.8217 38.4733 34.3292 43.0016 36.15C42.0991 38.525 40.9274 40.8842 38.9799 42.6258L38.9958 42.61ZM31.0474 21.9792C30.8099 18.4483 33.6758 15.535 36.9691 15.25C37.4283 19.335 33.2641 22.375 31.0474 21.9792Z" fill="white"/>
<path d="M71.116 9.242C72.18 9.242 73.0993 9.44267 73.874 9.844C74.658 10.236 75.2553 10.8007 75.666 11.538C76.086 12.2753 76.296 13.1433 76.296 14.142C76.296 15.1407 76.086 16.0087 75.666 16.746C75.2553 17.474 74.658 18.034 73.874 18.426C73.0993 18.8087 72.18 19 71.116 19H68.078V9.242H71.116ZM71.116 17.95C72.376 17.95 73.3373 17.6187 74 16.956C74.6627 16.284 74.994 15.346 74.994 14.142C74.994 12.9287 74.658 11.9813 73.986 11.3C73.3233 10.6187 72.3667 10.278 71.116 10.278H69.352V17.95H71.116ZM81.3224 19.126C80.6038 19.126 79.9504 18.9627 79.3624 18.636C78.7838 18.3093 78.3264 17.8473 77.9904 17.25C77.6638 16.6433 77.5004 15.9433 77.5004 15.15C77.5004 14.366 77.6684 13.6753 78.0044 13.078C78.3498 12.4713 78.8164 12.0093 79.4044 11.692C79.9924 11.3653 80.6504 11.202 81.3784 11.202C82.1064 11.202 82.7644 11.3653 83.3524 11.692C83.9404 12.0093 84.4024 12.4667 84.7384 13.064C85.0838 13.6613 85.2564 14.3567 85.2564 15.15C85.2564 15.9433 85.0791 16.6433 84.7244 17.25C84.3791 17.8473 83.9078 18.3093 83.3104 18.636C82.7131 18.9627 82.0504 19.126 81.3224 19.126ZM81.3224 18.006C81.7798 18.006 82.2091 17.8987 82.6104 17.684C83.0118 17.4693 83.3338 17.1473 83.5764 16.718C83.8284 16.2887 83.9544 15.766 83.9544 15.15C83.9544 14.534 83.8331 14.0113 83.5904 13.582C83.3478 13.1527 83.0304 12.8353 82.6384 12.63C82.2464 12.4153 81.8218 12.308 81.3644 12.308C80.8978 12.308 80.4684 12.4153 80.0764 12.63C79.6938 12.8353 79.3858 13.1527 79.1524 13.582C78.9191 14.0113 78.8024 14.534 78.8024 15.15C78.8024 15.7753 78.9144 16.3027 79.1384 16.732C79.3718 17.1613 79.6798 17.4833 80.0624 17.698C80.4451 17.9033 80.8651 18.006 81.3224 18.006ZM97.1515 11.328L94.7575 19H93.4415L91.5935 12.91L89.7455 19H88.4295L86.0215 11.328H87.3235L89.0875 17.768L90.9915 11.328H92.2935L94.1555 17.782L95.8915 11.328H97.1515ZM102.154 11.188C103.087 11.188 103.843 11.4727 104.422 12.042C105.001 12.602 105.29 13.414 105.29 14.478V19H104.03V14.66C104.03 13.8947 103.839 13.3113 103.456 12.91C103.073 12.4993 102.551 12.294 101.888 12.294C101.216 12.294 100.679 12.504 100.278 12.924C99.8859 13.344 99.6899 13.9553 99.6899 14.758V19H98.4159V11.328H99.6899V12.42C99.9419 12.028 100.283 11.7247 100.712 11.51C101.151 11.2953 101.631 11.188 102.154 11.188ZM108.645 8.64V19H107.371V8.64H108.645ZM114.162 19.126C113.444 19.126 112.79 18.9627 112.202 18.636C111.624 18.3093 111.166 17.8473 110.83 17.25C110.504 16.6433 110.34 15.9433 110.34 15.15C110.34 14.366 110.508 13.6753 110.844 13.078C111.19 12.4713 111.656 12.0093 112.244 11.692C112.832 11.3653 113.49 11.202 114.218 11.202C114.946 11.202 115.604 11.3653 116.192 11.692C116.78 12.0093 117.242 12.4667 117.578 13.064C117.924 13.6613 118.096 14.3567 118.096 15.15C118.096 15.9433 117.919 16.6433 117.564 17.25C117.219 17.8473 116.748 18.3093 116.15 18.636C115.553 18.9627 114.89 19.126 114.162 19.126ZM114.162 18.006C114.62 18.006 115.049 17.8987 115.45 17.684C115.852 17.4693 116.174 17.1473 116.416 16.718C116.668 16.2887 116.794 15.766 116.794 15.15C116.794 14.534 116.673 14.0113 116.43 13.582C116.188 13.1527 115.87 12.8353 115.478 12.63C115.086 12.4153 114.662 12.308 114.204 12.308C113.738 12.308 113.308 12.4153 112.916 12.63C112.534 12.8353 112.226 13.1527 111.992 13.582C111.759 14.0113 111.642 14.534 111.642 15.15C111.642 15.7753 111.754 16.3027 111.978 16.732C112.212 17.1613 112.52 17.4833 112.902 17.698C113.285 17.9033 113.705 18.006 114.162 18.006ZM119.295 15.136C119.295 14.352 119.454 13.666 119.771 13.078C120.089 12.4807 120.523 12.0187 121.073 11.692C121.633 11.3653 122.254 11.202 122.935 11.202C123.607 11.202 124.191 11.3467 124.685 11.636C125.18 11.9253 125.549 12.2893 125.791 12.728V11.328H127.079V19H125.791V17.572C125.539 18.02 125.161 18.3933 124.657 18.692C124.163 18.9813 123.584 19.126 122.921 19.126C122.24 19.126 121.624 18.958 121.073 18.622C120.523 18.286 120.089 17.8147 119.771 17.208C119.454 16.6013 119.295 15.9107 119.295 15.136ZM125.791 15.15C125.791 14.5713 125.675 14.0673 125.441 13.638C125.208 13.2087 124.891 12.882 124.489 12.658C124.097 12.4247 123.663 12.308 123.187 12.308C122.711 12.308 122.277 12.42 121.885 12.644C121.493 12.868 121.181 13.1947 120.947 13.624C120.714 14.0533 120.597 14.5573 120.597 15.136C120.597 15.724 120.714 16.2373 120.947 16.676C121.181 17.1053 121.493 17.4367 121.885 17.67C122.277 17.894 122.711 18.006 123.187 18.006C123.663 18.006 124.097 17.894 124.489 17.67C124.891 17.4367 125.208 17.1053 125.441 16.676C125.675 16.2373 125.791 15.7287 125.791 15.15ZM128.756 15.136C128.756 14.352 128.915 13.666 129.232 13.078C129.55 12.4807 129.984 12.0187 130.534 11.692C131.094 11.3653 131.72 11.202 132.41 11.202C133.008 11.202 133.563 11.342 134.076 11.622C134.59 11.8927 134.982 12.252 135.252 12.7V8.64H136.54V19H135.252V17.558C135 18.0153 134.627 18.3933 134.132 18.692C133.638 18.9813 133.059 19.126 132.396 19.126C131.715 19.126 131.094 18.958 130.534 18.622C129.984 18.286 129.55 17.8147 129.232 17.208C128.915 16.6013 128.756 15.9107 128.756 15.136ZM135.252 15.15C135.252 14.5713 135.136 14.0673 134.902 13.638C134.669 13.2087 134.352 12.882 133.95 12.658C133.558 12.4247 133.124 12.308 132.648 12.308C132.172 12.308 131.738 12.42 131.346 12.644C130.954 12.868 130.642 13.1947 130.408 13.624C130.175 14.0533 130.058 14.5573 130.058 15.136C130.058 15.724 130.175 16.2373 130.408 16.676C130.642 17.1053 130.954 17.4367 131.346 17.67C131.738 17.894 132.172 18.006 132.648 18.006C133.124 18.006 133.558 17.894 133.95 17.67C134.352 17.4367 134.669 17.1053 134.902 16.676C135.136 16.2373 135.252 15.7287 135.252 15.15ZM145.772 19.126C145.053 19.126 144.4 18.9627 143.812 18.636C143.233 18.3093 142.776 17.8473 142.44 17.25C142.113 16.6433 141.95 15.9433 141.95 15.15C141.95 14.366 142.118 13.6753 142.454 13.078C142.799 12.4713 143.266 12.0093 143.854 11.692C144.442 11.3653 145.1 11.202 145.828 11.202C146.556 11.202 147.214 11.3653 147.802 11.692C148.39 12.0093 148.852 12.4667 149.188 13.064C149.533 13.6613 149.706 14.3567 149.706 15.15C149.706 15.9433 149.528 16.6433 149.174 17.25C148.828 17.8473 148.357 18.3093 147.76 18.636C147.162 18.9627 146.5 19.126 145.772 19.126ZM145.772 18.006C146.229 18.006 146.658 17.8987 147.06 17.684C147.461 17.4693 147.783 17.1473 148.026 16.718C148.278 16.2887 148.404 15.766 148.404 15.15C148.404 14.534 148.282 14.0113 148.04 13.582C147.797 13.1527 147.48 12.8353 147.088 12.63C146.696 12.4153 146.271 12.308 145.814 12.308C145.347 12.308 144.918 12.4153 144.526 12.63C144.143 12.8353 143.835 13.1527 143.602 13.582C143.368 14.0113 143.252 14.534 143.252 15.15C143.252 15.7753 143.364 16.3027 143.588 16.732C143.821 17.1613 144.129 17.4833 144.512 17.698C144.894 17.9033 145.314 18.006 145.772 18.006ZM155.119 11.188C156.052 11.188 156.808 11.4727 157.387 12.042C157.965 12.602 158.255 13.414 158.255 14.478V19H156.995V14.66C156.995 13.8947 156.803 13.3113 156.421 12.91C156.038 12.4993 155.515 12.294 154.853 12.294C154.181 12.294 153.644 12.504 153.243 12.924C152.851 13.344 152.655 13.9553 152.655 14.758V19H151.381V11.328H152.655V12.42C152.907 12.028 153.247 11.7247 153.677 11.51C154.115 11.2953 154.596 11.188 155.119 11.188ZM165.622 12.378V16.9C165.622 17.2733 165.702 17.5393 165.86 17.698C166.019 17.8473 166.294 17.922 166.686 17.922H167.624V19H166.476C165.767 19 165.235 18.8367 164.88 18.51C164.526 18.1833 164.348 17.6467 164.348 16.9V12.378H163.354V11.328H164.348V9.396H165.622V11.328H167.624V12.378H165.622ZM172.976 11.188C173.555 11.188 174.077 11.314 174.544 11.566C175.011 11.8087 175.375 12.1773 175.636 12.672C175.907 13.1667 176.042 13.7687 176.042 14.478V19H174.782V14.66C174.782 13.8947 174.591 13.3113 174.208 12.91C173.825 12.4993 173.303 12.294 172.64 12.294C171.968 12.294 171.431 12.504 171.03 12.924C170.638 13.344 170.442 13.9553 170.442 14.758V19H169.168V8.64H170.442V12.42C170.694 12.028 171.039 11.7247 171.478 11.51C171.926 11.2953 172.425 11.188 172.976 11.188ZM185.123 14.87C185.123 15.1127 185.109 15.3693 185.081 15.64H178.949C178.996 16.396 179.252 16.9887 179.719 17.418C180.195 17.838 180.769 18.048 181.441 18.048C181.992 18.048 182.449 17.922 182.813 17.67C183.186 17.4087 183.448 17.0633 183.597 16.634H184.969C184.764 17.3713 184.353 17.9733 183.737 18.44C183.121 18.8973 182.356 19.126 181.441 19.126C180.713 19.126 180.06 18.9627 179.481 18.636C178.912 18.3093 178.464 17.8473 178.137 17.25C177.81 16.6433 177.647 15.9433 177.647 15.15C177.647 14.3567 177.806 13.6613 178.123 13.064C178.44 12.4667 178.884 12.0093 179.453 11.692C180.032 11.3653 180.694 11.202 181.441 11.202C182.169 11.202 182.813 11.3607 183.373 11.678C183.933 11.9953 184.362 12.434 184.661 12.994C184.969 13.5447 185.123 14.17 185.123 14.87ZM183.807 14.604C183.807 14.1187 183.7 13.7033 183.485 13.358C183.27 13.0033 182.976 12.7373 182.603 12.56C182.239 12.3733 181.833 12.28 181.385 12.28C180.741 12.28 180.19 12.4853 179.733 12.896C179.285 13.3067 179.028 13.876 178.963 14.604H183.807Z" fill="#E7E7E7"/>
<path d="M76.94 44.34H71.38L70.46 47H67.52L72.54 33.02H75.8L80.82 47H77.86L76.94 44.34ZM76.18 42.1L74.16 36.26L72.14 42.1H76.18ZM85.4964 37.52C85.8564 37.0133 86.3497 36.5933 86.9764 36.26C87.6164 35.9133 88.3431 35.74 89.1564 35.74C90.1031 35.74 90.9564 35.9733 91.7164 36.44C92.4897 36.9067 93.0964 37.5733 93.5364 38.44C93.9897 39.2933 94.2164 40.2867 94.2164 41.42C94.2164 42.5533 93.9897 43.56 93.5364 44.44C93.0964 45.3067 92.4897 45.98 91.7164 46.46C90.9564 46.94 90.1031 47.18 89.1564 47.18C88.3431 47.18 87.6231 47.0133 86.9964 46.68C86.3831 46.3467 85.8831 45.9267 85.4964 45.42V52.28H82.6964V35.92H85.4964V37.52ZM91.3564 41.42C91.3564 40.7533 91.2164 40.18 90.9364 39.7C90.6697 39.2067 90.3097 38.8333 89.8564 38.58C89.4164 38.3267 88.9364 38.2 88.4164 38.2C87.9097 38.2 87.4297 38.3333 86.9764 38.6C86.5364 38.8533 86.1764 39.2267 85.8964 39.72C85.6297 40.2133 85.4964 40.7933 85.4964 41.46C85.4964 42.1267 85.6297 42.7067 85.8964 43.2C86.1764 43.6933 86.5364 44.0733 86.9764 44.34C87.4297 44.5933 87.9097 44.72 88.4164 44.72C88.9364 44.72 89.4164 44.5867 89.8564 44.32C90.3097 44.0533 90.6697 43.6733 90.9364 43.18C91.2164 42.6867 91.3564 42.1 91.3564 41.42ZM99.0511 37.52C99.4111 37.0133 99.9044 36.5933 100.531 36.26C101.171 35.9133 101.898 35.74 102.711 35.74C103.658 35.74 104.511 35.9733 105.271 36.44C106.044 36.9067 106.651 37.5733 107.091 38.44C107.544 39.2933 107.771 40.2867 107.771 41.42C107.771 42.5533 107.544 43.56 107.091 44.44C106.651 45.3067 106.044 45.98 105.271 46.46C104.511 46.94 103.658 47.18 102.711 47.18C101.898 47.18 101.178 47.0133 100.551 46.68C99.9378 46.3467 99.4378 45.9267 99.0511 45.42V52.28H96.2511V35.92H99.0511V37.52ZM104.911 41.42C104.911 40.7533 104.771 40.18 104.491 39.7C104.224 39.2067 103.864 38.8333 103.411 38.58C102.971 38.3267 102.491 38.2 101.971 38.2C101.464 38.2 100.984 38.3333 100.531 38.6C100.091 38.8533 99.7311 39.2267 99.4511 39.72C99.1844 40.2133 99.0511 40.7933 99.0511 41.46C99.0511 42.1267 99.1844 42.7067 99.4511 43.2C99.7311 43.6933 100.091 44.0733 100.531 44.34C100.984 44.5933 101.464 44.72 101.971 44.72C102.491 44.72 102.971 44.5867 103.411 44.32C103.864 44.0533 104.224 43.6733 104.491 43.18C104.771 42.6867 104.911 42.1 104.911 41.42ZM112.606 32.2V47H109.806V32.2H112.606ZM125.672 41.22C125.672 41.62 125.646 41.98 125.592 42.3H117.492C117.559 43.1 117.839 43.7267 118.332 44.18C118.826 44.6333 119.432 44.86 120.152 44.86C121.192 44.86 121.932 44.4133 122.372 43.52H125.392C125.072 44.5867 124.459 45.4667 123.552 46.16C122.646 46.84 121.532 47.18 120.212 47.18C119.146 47.18 118.186 46.9467 117.332 46.48C116.492 46 115.832 45.3267 115.352 44.46C114.886 43.5933 114.652 42.5933 114.652 41.46C114.652 40.3133 114.886 39.3067 115.352 38.44C115.819 37.5733 116.472 36.9067 117.312 36.44C118.152 35.9733 119.119 35.74 120.212 35.74C121.266 35.74 122.206 35.9667 123.032 36.42C123.872 36.8733 124.519 37.52 124.972 38.36C125.439 39.1867 125.672 40.14 125.672 41.22ZM122.772 40.42C122.759 39.7 122.499 39.1267 121.992 38.7C121.486 38.26 120.866 38.04 120.132 38.04C119.439 38.04 118.852 38.2533 118.372 38.68C117.906 39.0933 117.619 39.6733 117.512 40.42H122.772ZM137.302 47.14C136.328 47.14 135.448 46.9733 134.662 46.64C133.888 46.3067 133.275 45.8267 132.822 45.2C132.368 44.5733 132.135 43.8333 132.122 42.98H135.122C135.162 43.5533 135.362 44.0067 135.722 44.34C136.095 44.6733 136.602 44.84 137.242 44.84C137.895 44.84 138.408 44.6867 138.782 44.38C139.155 44.06 139.342 43.6467 139.342 43.14C139.342 42.7267 139.215 42.3867 138.962 42.12C138.708 41.8533 138.388 41.6467 138.002 41.5C137.628 41.34 137.108 41.1667 136.442 40.98C135.535 40.7133 134.795 40.4533 134.222 40.2C133.662 39.9333 133.175 39.54 132.762 39.02C132.362 38.4867 132.162 37.78 132.162 36.9C132.162 36.0733 132.368 35.3533 132.782 34.74C133.195 34.1267 133.775 33.66 134.522 33.34C135.268 33.0067 136.122 32.84 137.082 32.84C138.522 32.84 139.688 33.1933 140.582 33.9C141.488 34.5933 141.988 35.5667 142.082 36.82H139.002C138.975 36.34 138.768 35.9467 138.382 35.64C138.008 35.32 137.508 35.16 136.882 35.16C136.335 35.16 135.895 35.3 135.562 35.58C135.242 35.86 135.082 36.2667 135.082 36.8C135.082 37.1733 135.202 37.4867 135.442 37.74C135.695 37.98 136.002 38.18 136.362 38.34C136.735 38.4867 137.255 38.66 137.922 38.86C138.828 39.1267 139.568 39.3933 140.142 39.66C140.715 39.9267 141.208 40.3267 141.622 40.86C142.035 41.3933 142.242 42.0933 142.242 42.96C142.242 43.7067 142.048 44.4 141.662 45.04C141.275 45.68 140.708 46.1933 139.962 46.58C139.215 46.9533 138.328 47.14 137.302 47.14ZM147.929 38.22V43.58C147.929 43.9533 148.016 44.2267 148.189 44.4C148.376 44.56 148.682 44.64 149.109 44.64H150.409V47H148.649C146.289 47 145.109 45.8533 145.109 43.56V38.22H143.789V35.92H145.109V33.18H147.929V35.92H150.409V38.22H147.929ZM157.343 47.18C156.276 47.18 155.316 46.9467 154.463 46.48C153.61 46 152.936 45.3267 152.443 44.46C151.963 43.5933 151.723 42.5933 151.723 41.46C151.723 40.3267 151.97 39.3267 152.463 38.46C152.97 37.5933 153.656 36.9267 154.523 36.46C155.39 35.98 156.356 35.74 157.423 35.74C158.49 35.74 159.456 35.98 160.323 36.46C161.19 36.9267 161.87 37.5933 162.363 38.46C162.87 39.3267 163.123 40.3267 163.123 41.46C163.123 42.5933 162.863 43.5933 162.343 44.46C161.836 45.3267 161.143 46 160.263 46.48C159.396 46.9467 158.423 47.18 157.343 47.18ZM157.343 44.74C157.85 44.74 158.323 44.62 158.763 44.38C159.216 44.1267 159.576 43.7533 159.843 43.26C160.11 42.7667 160.243 42.1667 160.243 41.46C160.243 40.4067 159.963 39.6 159.403 39.04C158.856 38.4667 158.183 38.18 157.383 38.18C156.583 38.18 155.91 38.4667 155.363 39.04C154.83 39.6 154.563 40.4067 154.563 41.46C154.563 42.5133 154.823 43.3267 155.343 43.9C155.876 44.46 156.543 44.74 157.343 44.74ZM167.977 37.64C168.337 37.0533 168.804 36.5933 169.377 36.26C169.964 35.9267 170.63 35.76 171.377 35.76V38.7H170.637C169.757 38.7 169.09 38.9067 168.637 39.32C168.197 39.7333 167.977 40.4533 167.977 41.48V47H165.177V35.92H167.977V37.64ZM183.563 41.22C183.563 41.62 183.536 41.98 183.483 42.3H175.383C175.449 43.1 175.729 43.7267 176.223 44.18C176.716 44.6333 177.323 44.86 178.043 44.86C179.083 44.86 179.823 44.4133 180.263 43.52H183.283C182.963 44.5867 182.349 45.4667 181.443 46.16C180.536 46.84 179.423 47.18 178.103 47.18C177.036 47.18 176.076 46.9467 175.223 46.48C174.383 46 173.723 45.3267 173.243 44.46C172.776 43.5933 172.543 42.5933 172.543 41.46C172.543 40.3133 172.776 39.3067 173.243 38.44C173.709 37.5733 174.363 36.9067 175.203 36.44C176.043 35.9733 177.009 35.74 178.103 35.74C179.156 35.74 180.096 35.9667 180.923 36.42C181.763 36.8733 182.409 37.52 182.863 38.36C183.329 39.1867 183.563 40.14 183.563 41.22ZM180.663 40.42C180.649 39.7 180.389 39.1267 179.883 38.7C179.376 38.26 178.756 38.04 178.023 38.04C177.329 38.04 176.743 38.2533 176.263 38.68C175.796 39.0933 175.509 39.6733 175.403 40.42H180.663Z" fill="#E7E7E7"/>
</svg>