<svg width="20" height="20" viewBox="0 0 20 20" fill="none" xmlns="http://www.w3.org/2000/svg">
<path d="M10.0001 18.6399C14.7718 18.6399 18.6401 14.7716 18.6401 9.99986C18.6401 5.22812 14.7718 1.35986 10.0001 1.35986C5.22837 1.35986 1.36011 5.22812 1.36011 9.99986C1.36011 14.7716 5.22837 18.6399 10.0001 18.6399Z" stroke="black" stroke-miterlimit="10" stroke-linecap="round"/>
<path d="M9.99993 18.6399C12.3858 18.6399 14.3199 14.7716 14.3199 9.99986C14.3199 5.22812 12.3858 1.35986 9.99993 1.35986C7.61406 1.35986 5.67993 5.22812 5.67993 9.99986C5.67993 14.7716 7.61406 18.6399 9.99993 18.6399Z" stroke="black" stroke-miterlimit="10" stroke-linecap="round"/>
<path d="M3.2915 15.5576C4.87586 14.5824 7.29254 13.96 10.0001 13.96C12.6706 13.96 15.0577 14.5655 16.6425 15.517" stroke="black" stroke-miterlimit="10"/>
<path d="M16.7086 4.44287C15.1243 5.41775 12.7076 6.04019 10 6.04019C7.32991 6.04019 4.94239 5.43467 3.35767 4.48319" stroke="black" stroke-miterlimit="10"/>
<path d="M1.36011 10H18.6401" stroke="black" stroke-miterlimit="10"/>
<path d="M10 1.35986V18.6399" stroke="black" stroke-miterlimit="10"/>
</svg>
