<svg width="22" height="28" viewBox="0 0 22 28" fill="none" xmlns="http://www.w3.org/2000/svg">
<path d="M10.6667 14.2501C11.4 14.2501 12.028 13.9887 12.5507 13.4661C13.0733 12.9434 13.3342 12.3159 13.3333 11.5834C13.3333 10.8501 13.072 10.2221 12.5493 9.69942C12.0267 9.17675 11.3991 8.91586 10.6667 8.91675C9.93333 8.91675 9.30533 9.17808 8.78267 9.70075C8.26 10.2234 7.99911 10.851 8 11.5834C8 12.3167 8.26133 12.9447 8.784 13.4674C9.30667 13.9901 9.93422 14.251 10.6667 14.2501ZM10.6667 27.0834C10.4889 27.0834 10.3111 27.0501 10.1333 26.9834C9.95556 26.9167 9.8 26.8279 9.66667 26.7167C6.42222 23.8501 4 21.1887 2.4 18.7327C0.8 16.2767 0 13.9825 0 11.8501C0 8.51675 1.07244 5.86119 3.21733 3.88341C5.36222 1.90564 7.84533 0.916748 10.6667 0.916748C13.4889 0.916748 15.9724 1.90564 18.1173 3.88341C20.2622 5.86119 21.3342 8.51675 21.3333 11.8501C21.3333 13.9834 20.5333 16.2781 18.9333 18.7341C17.3333 21.1901 14.9111 23.851 11.6667 26.7167C11.5333 26.8279 11.3778 26.9167 11.2 26.9834C11.0222 27.0501 10.8444 27.0834 10.6667 27.0834Z" fill="#3579F8"/>
</svg>
