<svg width="43" height="41" viewBox="0 0 43 41" fill="none" xmlns="http://www.w3.org/2000/svg">
<path d="M35.3158 41H6.81123C3.0324 41 0 38.0455 0 34.4091V6.63636C0 2.95455 3.0324 0 6.81123 0H35.3158C39.0479 0 42.127 2.95455 42.127 6.63636V34.4091C42.0803 38.0455 39.0479 41 35.3158 41Z" fill="#3579F8"/>
<path d="M9.75037 26.2728V24.3182V14.4546C9.75037 11.9546 11.8031 9.95459 14.3689 9.95459H27.7115C30.2774 9.95459 32.3301 11.9546 32.3301 14.4546V23.591C32.3301 26.091 30.2774 28.091 27.7115 28.091H15.8618L14.4156 28.9091L10.7301 30.9546C10.3102 31.1819 9.75037 30.9091 9.75037 30.4091V26.2728Z" fill="white"/>
<path d="M23.746 16.4999H21.8799V14.6817C21.8799 14.3635 21.6467 14.1362 21.3201 14.1362H20.7603C20.4337 14.1362 20.2005 14.3635 20.2005 14.6817V16.4999H18.3344C18.0078 16.4999 17.7745 16.7271 17.7745 17.0453V17.5908C17.7745 17.909 18.0078 18.1362 18.3344 18.1362H20.2005V19.9544C20.2005 20.2726 20.4337 20.4999 20.7603 20.4999H21.3201C21.6467 20.4999 21.8799 20.2726 21.8799 19.9544V18.1362H23.746C24.0726 18.1362 24.3059 17.909 24.3059 17.5908V17.0453C24.3059 16.7271 24.0726 16.4999 23.746 16.4999Z" fill="#3579F8"/>
<path d="M21.0401 24.818C20.0604 24.818 19.1274 24.5907 18.241 24.1816C17.168 23.6361 16.3282 22.8634 15.6751 21.818C15.4418 21.4543 15.5352 21.0452 15.8617 20.8634C16.0017 20.7725 16.1416 20.7271 16.2816 20.7271C16.5148 20.7271 16.7481 20.8634 16.8414 21.0452C17.3079 21.7725 17.7745 22.2271 18.3343 22.5907C19.0341 23.0452 19.8272 23.318 20.6202 23.3634C20.7602 23.3634 20.8535 23.3634 20.9935 23.3634C22.6263 23.3634 23.9792 22.6816 24.9589 21.318C25.0056 21.2725 25.0522 21.1816 25.0989 21.1361L25.1455 21.0452C25.3321 20.7725 25.612 20.7271 25.752 20.7271C25.892 20.7271 26.0319 20.7725 26.1719 20.818C26.4984 20.9998 26.5917 21.4089 26.4051 21.7725C25.892 22.5907 25.2388 23.2725 24.4457 23.7725C23.6526 24.2725 22.8129 24.5907 21.8799 24.7271C21.6933 24.7725 21.46 24.7725 21.2734 24.7725C21.2267 24.818 21.1334 24.818 21.0401 24.818Z" fill="#3579F8"/>
</svg>
