<svg width="64" height="64" viewBox="0 0 64 64" fill="none" xmlns="http://www.w3.org/2000/svg">
<path d="M25.6 44.8C26.5067 44.8 27.2672 44.4928 27.8816 43.8784C28.496 43.264 28.8021 42.5045 28.8 41.6V22.4C28.8 21.4933 28.4928 20.7328 27.8784 20.1184C27.264 19.504 26.5045 19.1979 25.6 19.2C24.6933 19.2 23.9328 19.5072 23.3184 20.1216C22.704 20.736 22.3979 21.4955 22.4 22.4V41.6C22.4 42.5067 22.7072 43.2672 23.3216 43.8816C23.936 44.496 24.6955 44.8021 25.6 44.8ZM38.4 44.8C39.3067 44.8 40.0672 44.4928 40.6816 43.8784C41.296 43.264 41.6021 42.5045 41.6 41.6V22.4C41.6 21.4933 41.2928 20.7328 40.6784 20.1184C40.064 19.504 39.3045 19.1979 38.4 19.2C37.4933 19.2 36.7328 19.5072 36.1184 20.1216C35.504 20.736 35.1979 21.4955 35.2 22.4V41.6C35.2 42.5067 35.5072 43.2672 36.1216 43.8816C36.736 44.496 37.4955 44.8021 38.4 44.8ZM32 64C27.5733 64 23.4133 63.1595 19.52 61.4784C15.6267 59.7973 12.24 57.5179 9.36 54.64C6.48 51.76 4.20053 48.3733 2.5216 44.48C0.842667 40.5867 0.00213333 36.4267 0 32C0 27.5733 0.840534 23.4133 2.5216 19.52C4.20267 15.6267 6.48213 12.24 9.36 9.36C12.24 6.48 15.6267 4.20053 19.52 2.5216C23.4133 0.842667 27.5733 0.00213333 32 0C36.4267 0 40.5867 0.840534 44.48 2.5216C48.3733 4.20267 51.76 6.48213 54.64 9.36C57.52 12.24 59.8005 15.6267 61.4816 19.52C63.1627 23.4133 64.0021 27.5733 64 32C64 36.4267 63.1595 40.5867 61.4784 44.48C59.7973 48.3733 57.5179 51.76 54.64 54.64C51.76 57.52 48.3733 59.8005 44.48 61.4816C40.5867 63.1627 36.4267 64.0021 32 64ZM32 57.6C39.1467 57.6 45.2 55.12 50.16 50.16C55.12 45.2 57.6 39.1467 57.6 32C57.6 24.8533 55.12 18.8 50.16 13.84C45.2 8.88 39.1467 6.4 32 6.4C24.8533 6.4 18.8 8.88 13.84 13.84C8.88 18.8 6.4 24.8533 6.4 32C6.4 39.1467 8.88 45.2 13.84 50.16C18.8 55.12 24.8533 57.6 32 57.6Z" fill="white"/>
</svg>
