<svg width="54" height="47" viewBox="0 0 54 47" fill="none" xmlns="http://www.w3.org/2000/svg">
<path fill-rule="evenodd" clip-rule="evenodd" d="M10.3909 0.330078C7.53791 0.330078 5.11063 1.36541 3.10895 3.43611C1.10727 5.50682 0.106445 8.01463 0.106445 10.9596C0.106445 13.9046 1.10727 16.4124 3.10895 18.4831C5.11063 20.5538 7.53791 21.5892 10.3909 21.5892C12.9678 21.5892 14.5208 22.6475 15.0499 24.7642C15.5791 26.881 15.3145 29.2277 14.2562 31.8046C13.1978 34.3815 11.4262 36.7282 8.9414 38.8449C6.45655 40.9617 3.5116 42.02 0.106445 42.02V46.9897C6.22652 46.9897 11.3227 44.5624 15.3951 39.7077C19.4674 34.8531 22.1248 29.5154 23.3672 23.6944C24.6096 17.8734 24.253 12.5242 22.2974 7.64652C20.3417 2.76887 16.3729 0.330078 10.3909 0.330078ZM40.0706 0.330078C37.2176 0.330078 34.7903 1.36541 32.7886 3.43611C30.787 5.50682 29.7861 8.01463 29.7861 10.9596C29.7861 13.9046 30.787 16.4124 32.7886 18.4831C34.7903 20.5538 37.2176 21.5892 40.0706 21.5892C42.6474 21.5892 44.2119 22.6475 44.7641 24.7642C45.3163 26.881 45.0517 29.2277 43.9704 31.8046C42.889 34.3815 41.1174 36.7282 38.6556 38.8449C36.1938 40.9617 33.2373 42.02 29.7861 42.02V46.9897C35.9062 46.9897 41.0024 44.5624 45.0747 39.7077C49.1471 34.8531 51.8045 29.5154 53.0469 23.6944C54.2893 17.8734 53.9327 12.5242 51.977 7.64652C50.0214 2.76887 46.0526 0.330078 40.0706 0.330078Z" fill="#3579F8"/>
</svg>
