<svg width="20" height="20" viewBox="0 0 20 20" fill="none" xmlns="http://www.w3.org/2000/svg">
<path d="M6.84185 6.30093C6.84185 6.30093 3.05776 6.73132 0.533429 7.01907C0.305904 7.04735 0.104724 7.20352 0.029282 7.44085C-0.0461605 7.67818 0.0292818 7.92535 0.196932 8.08152C2.07221 9.83875 4.88993 12.4703 4.88993 12.4703C4.88753 12.4703 4.11635 16.2983 3.60382 18.8524C3.56071 19.0836 3.64214 19.3283 3.83853 19.4746C4.03372 19.6209 4.28519 19.6234 4.48278 19.509C6.69097 18.2203 9.99846 16.2823 9.99846 16.2823C9.99846 16.2823 13.3071 18.2203 15.5117 19.5103C15.7129 19.6234 15.9644 19.6209 16.1596 19.4746C16.356 19.3283 16.4374 19.0836 16.3931 18.8536C15.8806 16.2983 15.1106 12.4703 15.1106 12.4703C15.1106 12.4703 17.9283 9.83875 19.8036 8.08521C19.9712 7.92412 20.0455 7.67695 19.9712 7.44085C19.897 7.20475 19.6958 7.04858 19.4683 7.02153C16.944 6.73132 13.1587 6.30093 13.1587 6.30093C13.1587 6.30093 11.5899 2.73729 10.5445 0.361529C10.4463 0.148793 10.2404 0 9.99846 0C9.75657 0 9.5494 0.150022 9.45599 0.361529C8.40938 2.73729 6.84185 6.30093 6.84185 6.30093Z" fill="#FFC700"/>
</svg>
