<svg width="20" height="12" viewBox="0 0 20 12" fill="none" xmlns="http://www.w3.org/2000/svg">
<path d="M0.900097 9.12494L9.3001 0.699942C9.4001 0.599942 9.50843 0.528942 9.6251 0.486942C9.74176 0.444942 9.86676 0.424276 10.0001 0.424942C10.1334 0.424942 10.2584 0.445609 10.3751 0.486942C10.4918 0.528276 10.6001 0.599275 10.7001 0.699942L19.1251 9.12494C19.3584 9.35828 19.4751 9.64994 19.4751 9.99994C19.4751 10.3499 19.3501 10.6499 19.1001 10.8999C18.8501 11.1499 18.5584 11.2749 18.2251 11.2749C17.8918 11.2749 17.6001 11.1499 17.3501 10.8999L10.0001 3.54994L2.6501 10.8999C2.41676 11.1333 2.1291 11.2499 1.7871 11.2499C1.4451 11.2499 1.14943 11.1249 0.900097 10.8749C0.650097 10.6249 0.525097 10.3333 0.525097 9.99994C0.525097 9.66661 0.650097 9.37494 0.900097 9.12494Z" fill="#666666"/>
</svg>
